<mxfile host="app.diagrams.net" modified="2023-03-24T17:35:57.836Z" agent="Mozilla/5.0 (Macintosh; Intel Mac OS X 10.15; rv:109.0) Gecko/20100101 Firefox/111.0" etag="Gw1_NjENRsAvxEIR4WAi" compressed="false" version="21.1.0" type="device">
  <diagram name="Page-1" id="2YBvvXClWsGukQMizWep">
    <mxGraphModel dx="1060" dy="682" grid="1" gridSize="10" guides="1" tooltips="1" connect="1" arrows="1" fold="1" page="1" pageScale="1" pageWidth="2500" pageHeight="2500" math="0" shadow="0">
      <root>
        <mxCell id="0" />
        <mxCell id="1" parent="0" />
        <mxCell id="aM9ryv3xv72pqoxQDRHE-5" value="Repository" style="shape=umlLifeline;perimeter=lifelinePerimeter;whiteSpace=wrap;html=1;container=0;dropTarget=0;collapsible=0;recursiveResize=0;outlineConnect=0;portConstraint=eastwest;newEdgeStyle={&quot;edgeStyle&quot;:&quot;elbowEdgeStyle&quot;,&quot;elbow&quot;:&quot;vertical&quot;,&quot;curved&quot;:0,&quot;rounded&quot;:0};" parent="1" vertex="1">
          <mxGeometry x="780" y="40" width="130" height="540" as="geometry" />
        </mxCell>
        <mxCell id="aM9ryv3xv72pqoxQDRHE-6" value="" style="html=1;points=[];perimeter=orthogonalPerimeter;outlineConnect=0;targetShapes=umlLifeline;portConstraint=eastwest;newEdgeStyle={&quot;edgeStyle&quot;:&quot;elbowEdgeStyle&quot;,&quot;elbow&quot;:&quot;vertical&quot;,&quot;curved&quot;:0,&quot;rounded&quot;:0};strokeColor=#3399FF;" parent="aM9ryv3xv72pqoxQDRHE-5" vertex="1">
          <mxGeometry x="60" y="240" width="10" height="80" as="geometry" />
        </mxCell>
        <mxCell id="fCjNDRdymDhb6TnAWpX7-8" value="Student" style="shape=umlActor;verticalLabelPosition=bottom;verticalAlign=top;html=1;outlineConnect=0;strokeColor=#000000;fontSize=13;" parent="1" vertex="1">
          <mxGeometry x="50" y="40" width="30" height="60" as="geometry" />
        </mxCell>
        <mxCell id="fCjNDRdymDhb6TnAWpX7-12" value="" style="html=1;points=[];perimeter=orthogonalPerimeter;outlineConnect=0;targetShapes=umlLifeline;portConstraint=eastwest;newEdgeStyle={&quot;edgeStyle&quot;:&quot;elbowEdgeStyle&quot;,&quot;elbow&quot;:&quot;vertical&quot;,&quot;curved&quot;:0,&quot;rounded&quot;:0};strokeColor=#3399FF;" parent="1" vertex="1">
          <mxGeometry x="60" y="130" width="10" height="430" as="geometry" />
        </mxCell>
        <mxCell id="fCjNDRdymDhb6TnAWpX7-27" value="Collection Add Interface" style="shape=umlLifeline;perimeter=lifelinePerimeter;whiteSpace=wrap;html=1;container=0;dropTarget=0;collapsible=0;recursiveResize=0;outlineConnect=0;portConstraint=eastwest;newEdgeStyle={&quot;edgeStyle&quot;:&quot;elbowEdgeStyle&quot;,&quot;elbow&quot;:&quot;vertical&quot;,&quot;curved&quot;:0,&quot;rounded&quot;:0};" parent="1" vertex="1">
          <mxGeometry x="230" y="40" width="120" height="540" as="geometry" />
        </mxCell>
        <mxCell id="fCjNDRdymDhb6TnAWpX7-28" value="" style="html=1;points=[];perimeter=orthogonalPerimeter;outlineConnect=0;targetShapes=umlLifeline;portConstraint=eastwest;newEdgeStyle={&quot;edgeStyle&quot;:&quot;elbowEdgeStyle&quot;,&quot;elbow&quot;:&quot;vertical&quot;,&quot;curved&quot;:0,&quot;rounded&quot;:0};strokeColor=#3399FF;" parent="fCjNDRdymDhb6TnAWpX7-27" vertex="1">
          <mxGeometry x="55" y="90" width="10" height="430" as="geometry" />
        </mxCell>
        <mxCell id="fCjNDRdymDhb6TnAWpX7-33" value="" style="endArrow=none;dashed=1;html=1;rounded=0;fontSize=13;" parent="1" target="fCjNDRdymDhb6TnAWpX7-12" edge="1">
          <mxGeometry width="50" height="50" relative="1" as="geometry">
            <mxPoint x="65" y="580" as="sourcePoint" />
            <mxPoint x="65" y="660" as="targetPoint" />
            <Array as="points" />
          </mxGeometry>
        </mxCell>
        <mxCell id="fCjNDRdymDhb6TnAWpX7-42" value="selectCategory(category)" style="text;html=1;strokeColor=none;fillColor=none;align=center;verticalAlign=middle;whiteSpace=wrap;rounded=0;fontSize=13;" parent="1" vertex="1">
          <mxGeometry x="70" y="190" width="170" height="20" as="geometry" />
        </mxCell>
        <mxCell id="fCjNDRdymDhb6TnAWpX7-45" value="opt" style="shape=umlFrame;whiteSpace=wrap;html=1;pointerEvents=0;strokeColor=#000000;fontSize=13;width=40;height=20;" parent="1" vertex="1">
          <mxGeometry x="10" y="150" width="310" height="80" as="geometry" />
        </mxCell>
        <mxCell id="fCjNDRdymDhb6TnAWpX7-46" value="[Category]" style="text;html=1;strokeColor=none;fillColor=none;align=center;verticalAlign=middle;whiteSpace=wrap;rounded=0;fontSize=13;" parent="1" vertex="1">
          <mxGeometry x="10" y="170" width="70" height="20" as="geometry" />
        </mxCell>
        <mxCell id="fCjNDRdymDhb6TnAWpX7-51" value="" style="endArrow=classic;html=1;rounded=0;fontSize=13;" parent="1" source="fCjNDRdymDhb6TnAWpX7-12" target="fCjNDRdymDhb6TnAWpX7-28" edge="1">
          <mxGeometry width="50" height="50" relative="1" as="geometry">
            <mxPoint x="70" y="230" as="sourcePoint" />
            <mxPoint x="285" y="230" as="targetPoint" />
            <Array as="points">
              <mxPoint x="139" y="210" />
              <mxPoint x="204" y="210" />
            </Array>
          </mxGeometry>
        </mxCell>
        <mxCell id="8WBUeJ8e2ZMxS5DKSKpC-83" value="Library API" style="shape=umlLifeline;perimeter=lifelinePerimeter;whiteSpace=wrap;html=1;container=0;dropTarget=0;collapsible=0;recursiveResize=0;outlineConnect=0;portConstraint=eastwest;newEdgeStyle={&quot;edgeStyle&quot;:&quot;elbowEdgeStyle&quot;,&quot;elbow&quot;:&quot;vertical&quot;,&quot;curved&quot;:0,&quot;rounded&quot;:0};" parent="1" vertex="1">
          <mxGeometry x="510" y="40" width="130" height="540" as="geometry" />
        </mxCell>
        <mxCell id="8WBUeJ8e2ZMxS5DKSKpC-84" value="" style="html=1;points=[];perimeter=orthogonalPerimeter;outlineConnect=0;targetShapes=umlLifeline;portConstraint=eastwest;newEdgeStyle={&quot;edgeStyle&quot;:&quot;elbowEdgeStyle&quot;,&quot;elbow&quot;:&quot;vertical&quot;,&quot;curved&quot;:0,&quot;rounded&quot;:0};strokeColor=#3399FF;" parent="8WBUeJ8e2ZMxS5DKSKpC-83" vertex="1">
          <mxGeometry x="60" y="220" width="10" height="300" as="geometry" />
        </mxCell>
        <mxCell id="UOv02gEyeNIiNMxLk5ma-9" value="" style="endArrow=classic;html=1;rounded=0;" parent="1" edge="1">
          <mxGeometry width="50" height="50" relative="1" as="geometry">
            <mxPoint x="70" y="270" as="sourcePoint" />
            <mxPoint x="285" y="270" as="targetPoint" />
            <Array as="points">
              <mxPoint x="180" y="270" />
            </Array>
          </mxGeometry>
        </mxCell>
        <mxCell id="UOv02gEyeNIiNMxLk5ma-11" value="addBook(bookID)" style="text;html=1;strokeColor=none;fillColor=none;align=center;verticalAlign=middle;whiteSpace=wrap;rounded=0;fontSize=13;" parent="1" vertex="1">
          <mxGeometry x="73.75" y="250" width="126.25" height="20" as="geometry" />
        </mxCell>
        <mxCell id="UOv02gEyeNIiNMxLk5ma-12" value="" style="endArrow=classic;html=1;rounded=0;" parent="1" edge="1" target="8WBUeJ8e2ZMxS5DKSKpC-84">
          <mxGeometry width="50" height="50" relative="1" as="geometry">
            <mxPoint x="295" y="290" as="sourcePoint" />
            <mxPoint x="460" y="290" as="targetPoint" />
            <Array as="points">
              <mxPoint x="430" y="290" />
            </Array>
          </mxGeometry>
        </mxCell>
        <mxCell id="UOv02gEyeNIiNMxLk5ma-13" value="addBookToCollection(bookID, collectionID)" style="text;html=1;strokeColor=none;fillColor=none;align=center;verticalAlign=middle;whiteSpace=wrap;rounded=0;fontSize=13;" parent="1" vertex="1">
          <mxGeometry x="300" y="270" width="260" height="20" as="geometry" />
        </mxCell>
        <mxCell id="UOv02gEyeNIiNMxLk5ma-14" value="" style="endArrow=classic;html=1;rounded=0;" parent="1" target="aM9ryv3xv72pqoxQDRHE-6" edge="1" source="8WBUeJ8e2ZMxS5DKSKpC-84">
          <mxGeometry width="50" height="50" relative="1" as="geometry">
            <mxPoint x="470" y="310" as="sourcePoint" />
            <mxPoint x="560" y="320" as="targetPoint" />
            <Array as="points">
              <mxPoint x="580" y="310" />
              <mxPoint x="620" y="310" />
            </Array>
          </mxGeometry>
        </mxCell>
        <mxCell id="UOv02gEyeNIiNMxLk5ma-15" value="updateCollection(bookID, collectionID)" style="text;html=1;strokeColor=none;fillColor=none;align=center;verticalAlign=middle;whiteSpace=wrap;rounded=0;fontSize=13;" parent="1" vertex="1">
          <mxGeometry x="590" y="290" width="240" height="20" as="geometry" />
        </mxCell>
        <mxCell id="UOv02gEyeNIiNMxLk5ma-16" value="alt" style="shape=umlFrame;whiteSpace=wrap;html=1;pointerEvents=0;strokeColor=#000000;fontSize=13;width=40;height=20;" parent="1" vertex="1">
          <mxGeometry x="10" y="360" width="590" height="90" as="geometry" />
        </mxCell>
        <mxCell id="UOv02gEyeNIiNMxLk5ma-17" value="confirmUpdate()" style="text;html=1;strokeColor=none;fillColor=none;align=center;verticalAlign=middle;whiteSpace=wrap;rounded=0;fontSize=13;" parent="1" vertex="1">
          <mxGeometry x="437.5" y="390" width="135" height="20" as="geometry" />
        </mxCell>
        <mxCell id="UOv02gEyeNIiNMxLk5ma-18" value="" style="endArrow=classic;html=1;rounded=0;fontSize=13;" parent="1" edge="1" source="8WBUeJ8e2ZMxS5DKSKpC-84">
          <mxGeometry width="50" height="50" relative="1" as="geometry">
            <mxPoint x="460" y="410" as="sourcePoint" />
            <mxPoint x="295" y="410" as="targetPoint" />
            <Array as="points">
              <mxPoint x="440" y="410" />
            </Array>
          </mxGeometry>
        </mxCell>
        <mxCell id="UOv02gEyeNIiNMxLk5ma-19" value="" style="endArrow=classic;html=1;rounded=0;fontSize=13;dashed=1;" parent="1" edge="1">
          <mxGeometry width="50" height="50" relative="1" as="geometry">
            <mxPoint x="285" y="430" as="sourcePoint" />
            <mxPoint x="70" y="430" as="targetPoint" />
            <Array as="points">
              <mxPoint x="211" y="430" />
              <mxPoint x="130" y="430" />
            </Array>
          </mxGeometry>
        </mxCell>
        <mxCell id="UOv02gEyeNIiNMxLk5ma-20" value="Display Collection" style="text;html=1;strokeColor=none;fillColor=none;align=center;verticalAlign=middle;whiteSpace=wrap;rounded=0;fontSize=13;" parent="1" vertex="1">
          <mxGeometry x="115" y="410" width="106.25" height="20" as="geometry" />
        </mxCell>
        <mxCell id="UOv02gEyeNIiNMxLk5ma-21" value="" style="endArrow=classic;html=1;rounded=0;dashed=1;" parent="1" source="aM9ryv3xv72pqoxQDRHE-6" edge="1" target="8WBUeJ8e2ZMxS5DKSKpC-84">
          <mxGeometry width="50" height="50" relative="1" as="geometry">
            <mxPoint x="680" y="340" as="sourcePoint" />
            <mxPoint x="470" y="340" as="targetPoint" />
            <Array as="points">
              <mxPoint x="600" y="340" />
            </Array>
          </mxGeometry>
        </mxCell>
        <mxCell id="UOv02gEyeNIiNMxLk5ma-22" value="Result" style="text;html=1;strokeColor=none;fillColor=none;align=center;verticalAlign=middle;whiteSpace=wrap;rounded=0;fontSize=13;" parent="1" vertex="1">
          <mxGeometry x="625" y="320" width="70" height="20" as="geometry" />
        </mxCell>
        <mxCell id="UOv02gEyeNIiNMxLk5ma-23" value="[Result OK]" style="text;html=1;strokeColor=none;fillColor=none;align=center;verticalAlign=middle;whiteSpace=wrap;rounded=0;fontSize=13;" parent="1" vertex="1">
          <mxGeometry x="17.81" y="380" width="80" height="20" as="geometry" />
        </mxCell>
        <mxCell id="UOv02gEyeNIiNMxLk5ma-24" value="cancelUpdate()" style="text;html=1;strokeColor=none;fillColor=none;align=center;verticalAlign=middle;whiteSpace=wrap;rounded=0;fontSize=13;" parent="1" vertex="1">
          <mxGeometry x="450" y="470" width="110" height="20" as="geometry" />
        </mxCell>
        <mxCell id="UOv02gEyeNIiNMxLk5ma-25" value="" style="endArrow=classic;html=1;rounded=0;fontSize=13;" parent="1" edge="1" target="fCjNDRdymDhb6TnAWpX7-28" source="8WBUeJ8e2ZMxS5DKSKpC-84">
          <mxGeometry width="50" height="50" relative="1" as="geometry">
            <mxPoint x="465" y="480" as="sourcePoint" />
            <mxPoint x="300" y="480" as="targetPoint" />
            <Array as="points">
              <mxPoint x="480" y="490" />
              <mxPoint x="400" y="490" />
            </Array>
          </mxGeometry>
        </mxCell>
        <mxCell id="UOv02gEyeNIiNMxLk5ma-26" value="" style="endArrow=classic;html=1;rounded=0;fontSize=13;dashed=1;" parent="1" edge="1">
          <mxGeometry width="50" height="50" relative="1" as="geometry">
            <mxPoint x="285" y="520" as="sourcePoint" />
            <mxPoint x="70" y="520" as="targetPoint" />
            <Array as="points">
              <mxPoint x="219" y="520" />
              <mxPoint x="129" y="520" />
            </Array>
          </mxGeometry>
        </mxCell>
        <mxCell id="UOv02gEyeNIiNMxLk5ma-27" value="Display Failure" style="text;html=1;strokeColor=none;fillColor=none;align=center;verticalAlign=middle;whiteSpace=wrap;rounded=0;fontSize=13;" parent="1" vertex="1">
          <mxGeometry x="110" y="500" width="155.62" height="20" as="geometry" />
        </mxCell>
        <mxCell id="UOv02gEyeNIiNMxLk5ma-28" value="[Result FAIL]" style="text;html=1;strokeColor=none;fillColor=none;align=center;verticalAlign=middle;whiteSpace=wrap;rounded=0;fontSize=13;" parent="1" vertex="1">
          <mxGeometry x="17.81" y="450" width="92.19" height="20" as="geometry" />
        </mxCell>
        <mxCell id="UOv02gEyeNIiNMxLk5ma-29" value="" style="rounded=0;whiteSpace=wrap;html=1;fillColor=none;" parent="1" vertex="1">
          <mxGeometry x="10" y="450" width="590" height="90" as="geometry" />
        </mxCell>
      </root>
    </mxGraphModel>
  </diagram>
</mxfile>
